<?xml version="1.0" standalone="no"?>
<!DOCTYPE svg PUBLIC "-//W3C//DTD SVG 20010904//EN"
 "http://www.w3.org/TR/2001/REC-SVG-20010904/DTD/svg10.dtd">
<svg version="1.0" xmlns="http://www.w3.org/2000/svg"
 width="256.000000pt" height="256.000000pt" viewBox="0 0 256.000000 256.000000"
 preserveAspectRatio="xMidYMid meet">

<g transform="translate(0.000000,256.000000) scale(0.100000,-0.100000)"
fill="#000000" stroke="none">
<path d="M302 2138 c-49 -87 -74 -160 -101 -293 -43 -211 -51 -625 -17 -855 7
-47 9 -88 4 -91 -13 -8 38 -174 80 -259 46 -94 159 -211 248 -257 91 -48 226
-90 354 -110 166 -26 666 -26 825 0 126 21 262 64 349 110 89 47 202 164 248
257 43 86 93 251 79 259 -6 4 -6 25 -1 53 20 103 32 358 26 518 -14 333 -54
523 -144 678 l-36 62 -936 0 -936 0 -42 -72z m1228 -63 c36 -9 111 -39 167
-66 165 -79 285 -212 329 -364 52 -183 -11 -385 -166 -535 -157 -151 -426
-244 -656 -226 -80 6 -80 6 -110 -25 -76 -81 -237 -130 -319 -99 l-26 10 34
41 c38 43 61 114 51 153 -3 14 -25 37 -47 52 -149 98 -248 247 -267 402 -21
161 39 314 175 449 72 71 98 89 196 136 98 48 170 71 279 91 54 10 297 -3 360
-19z"/>
</g>
</svg>
